<?xml version="1.0" standalone="no"?>
<!DOCTYPE svg PUBLIC "-//W3C//DTD SVG 20010904//EN"
 "http://www.w3.org/TR/2001/REC-SVG-20010904/DTD/svg10.dtd">
<svg version="1.0" xmlns="http://www.w3.org/2000/svg"
 width="157.000000pt" height="157.000000pt" viewBox="0 0 157.000000 157.000000"
 preserveAspectRatio="xMidYMid meet">
<metadata>
Created by potrace 1.14, written by Peter Selinger 2001-2017
</metadata>
<g transform="translate(0.000000,157.000000) scale(0.100000,-0.100000)"
fill="#000000" stroke="none">
<path d="M1374 1301 c-2 -2 -4 -249 -4 -548 l0 -543 75 0 75 0 0 544 0 544
-71 4 c-39 2 -73 1 -75 -1z"/>
<path d="M730 1236 c-19 -7 -144 -66 -278 -130 l-243 -117 -79 26 c-77 26
-120 26 -120 3 0 -7 33 -45 73 -85 59 -58 79 -73 104 -73 39 0 166 33 226 59
l47 20 0 -22 c0 -12 -7 -82 -15 -156 -8 -74 -14 -136 -12 -138 7 -6 73 25 85
40 7 8 41 94 76 191 35 98 66 179 68 181 1 1 49 26 105 54 76 37 106 59 118
80 13 27 13 31 -3 51 -23 28 -101 36 -152 16z"/>
<path d="M233 1213 c-18 -9 -33 -21 -33 -27 0 -11 123 -96 139 -96 21 0 143
62 135 69 -10 9 -189 71 -201 70 -4 0 -23 -8 -40 -16z"/>
<path d="M1040 630 l0 -420 80 0 80 0 0 420 0 420 -80 0 -80 0 0 -420z"/>
<path d="M717 794 c-4 -4 -7 -137 -7 -296 l0 -288 80 0 80 0 -2 293 -3 292
-70 3 c-39 1 -74 0 -78 -4z"/>
<path d="M390 375 l0 -165 75 0 75 0 0 165 0 165 -75 0 -75 0 0 -165z"/>
<path d="M100 280 l0 -70 75 0 75 0 0 70 0 70 -75 0 -75 0 0 -70z"/>
</g>
</svg>
